<svg xmlns="http://www.w3.org/2000/svg" width="356" height="356" viewBox="0 0 356 356" fill="none"><path fill-rule="evenodd" clip-rule="evenodd" d="M60.6764 0.860293C52.2068 3.25102 44.8407 8.99852 41.3203 15.963C39.1767 20.2036 31.0276 42.0937 29.8553 46.7615C28.48 52.2372 29.3401 60.6653 31.837 66.1835L33.9493 70.8507L18.6518 71.0626L3.35349 71.2738L1.67709 73.2295L0 75.1853V96.658V118.131L1.83284 119.969C3.82909 121.97 5.27742 122.225 7.88693 121.033C10.8608 119.674 11.125 117.914 11.125 99.4697V82.0773H29.9116H48.6983L72.3792 88.6368C85.4038 92.2438 96.2153 95.3511 96.4044 95.5407C96.5942 95.7302 93.5821 101.169 89.712 107.626C85.8419 114.084 79.8253 125.091 76.3425 132.087L70.0096 144.808H40.5673H11.125V141.288C11.125 137.484 9.76427 134.084 7.9648 133.391C5.70434 132.522 3.37435 132.998 1.70699 134.67C0.0938672 136.286 0 136.819 0 144.332C0 151.995 0.06675 152.351 1.83284 154.122C3.65456 155.948 3.73383 155.96 14.3485 155.96H25.0312V254.143V352.327L26.4726 354.163L27.9133 356H178H328.087L329.527 354.163C330.896 352.419 330.969 351.47 330.969 335.298C330.969 318.024 330.744 316.297 328.248 314.376C326.832 313.286 323.981 313.286 322.565 314.376C320.136 316.245 319.844 318.13 319.844 331.907V345.545H265.262H210.68V252.843C210.68 201.857 210.833 160.142 211.02 160.142C211.546 160.142 217.166 171.604 220.611 179.703C230.434 202.796 236.926 224.796 240.946 248.614C242.257 256.383 242.654 257.26 245.367 258.387C247.025 259.075 247.807 259.06 249.37 258.308C251.665 257.204 259.762 245.965 267.743 232.804C270.823 227.725 273.508 223.569 273.71 223.569C274.525 223.569 289.439 234.83 297.587 241.598C302.371 245.572 306.989 249.093 307.85 249.422C309.915 250.213 312.529 249.165 313.963 246.971C315.027 245.344 315.026 244.711 313.941 238.054C311.852 225.235 307.987 208.158 304.196 194.992C300.886 183.499 298.774 177.329 292.441 160.665L290.652 155.96H305.248H319.844V226.741C319.844 288.67 319.976 297.776 320.899 299.567C322.752 303.159 328.254 303.137 330.075 299.531C330.759 298.176 330.951 282.412 330.958 226.88L330.969 155.96H341.652C352.266 155.96 352.345 155.948 354.167 154.122L356 152.284V113.735V75.1853L354.323 73.2295L352.647 71.2738L337.348 71.0626L322.051 70.8507L324.163 66.1835C326.66 60.6653 327.52 52.2372 326.145 46.7615C324.972 42.0937 316.823 20.2036 314.68 15.963C309.612 5.93867 296.996 -1.01465 285.935 0.121468C279.618 0.770379 276.543 2.07029 239.604 19.7045C207.446 35.056 206.224 35.5739 204.143 34.7201C197.411 31.9564 197.389 31.9543 178 31.9543C158.611 31.9543 158.589 31.9564 151.857 34.7201C149.777 35.5739 148.554 35.0553 116.396 19.701C98.0773 10.9543 81.1012 3.05516 78.6711 2.14766C73.0064 0.0322515 65.5089 -0.503745 60.6764 0.860293ZM108.238 28.026C140.98 43.6292 143.086 44.7409 142.552 46.1467C142.24 46.9706 141.758 49.7593 141.482 52.3445C141.206 54.9297 140.783 56.9531 140.543 56.8409C140.302 56.7287 136.194 54.5387 131.414 51.9744C110.546 40.7812 88.0106 33.2968 75.1508 33.2891C65.3635 33.2835 56.5546 36.7567 52.3223 42.2902C49.6995 45.7195 49.4951 47.7101 51.5039 50.2695C53.8054 53.2032 56.8884 52.7976 61.1541 48.9989C65.6618 44.9862 68.7184 44.1735 77.5273 44.6475C90.8182 45.3633 110.041 52.5933 134.021 65.8978L141.148 69.8519V82.9346C141.148 90.1298 140.998 96.0174 140.815 96.0174C140.631 96.0174 120.528 90.5097 96.1409 83.778C69.9443 76.5466 50.6626 70.8723 49.0188 69.9097C45.4818 67.8403 44.3192 66.5251 42.211 62.2127C39.9686 57.6257 39.5285 54.9388 40.3281 50.7135C41.2953 45.5996 50.2794 21.8527 52.396 18.8165C56.0276 13.605 61.9461 10.8588 68.8359 11.1871C73.1163 11.3913 75.2015 12.2828 108.238 28.026ZM293.5 11.6903C297.165 12.7108 301.672 15.9776 303.802 19.1574C305.951 22.3657 314.728 45.723 315.685 50.7832C316.471 54.9395 316.023 57.6431 313.789 62.2127C311.681 66.5251 310.518 67.8403 306.981 69.9097C305.337 70.8723 286.056 76.5466 259.859 83.778C235.472 90.5097 215.369 96.0174 215.185 96.0174C215.002 96.0174 214.852 90.088 214.852 82.8405V69.6637L220.24 66.4993C234.932 57.8704 258.615 47.883 269.926 45.5466C276.07 44.2767 284.22 44.1115 288.053 45.1779C289.498 45.5808 292.246 47.3038 294.16 49.008C298.181 52.5878 301.011 53.0603 303.633 50.5908C306.134 48.235 305.77 45.2365 302.535 41.5521C297.815 36.1768 290.032 33.2982 280.211 33.2933C267.025 33.287 242.737 41.5605 221.457 53.3064L215.199 56.7607L214.404 51.3506C213.967 48.3751 213.432 45.6533 213.215 45.3013C212.91 44.805 270.05 17.0496 281.602 12.0835C284.429 10.8679 289.899 10.6874 293.5 11.6903ZM198.93 44.6273C203.66 47.7945 203.724 48.2141 203.725 75.699C203.727 102.939 203.638 103.555 199.295 106.661C197.173 108.178 196.666 108.215 178 108.215C150.398 108.215 152.273 110.585 152.275 75.699C152.276 48.2141 152.34 47.7945 157.07 44.6273C159.379 43.0813 159.854 43.0451 178 43.0451C196.146 43.0451 196.621 43.0813 198.93 44.6273ZM344.875 113.443V144.808H315.433H285.99L279.657 132.087C276.175 125.092 270.158 114.084 266.288 107.626C262.418 101.169 259.407 95.7288 259.598 95.5379C259.789 95.3469 270.372 92.271 283.115 88.7037L306.285 82.2167L325.58 82.147L344.875 82.0773V113.443ZM126.108 103.46L142.887 108.114L147.059 112.417C149.602 115.041 152.248 117.054 153.838 117.575C155.272 118.046 156.445 118.729 156.445 119.096C156.445 119.463 154.307 122.966 151.694 126.883C131.949 156.472 117.058 190.472 108.839 224.728C107.474 230.416 106.118 236.007 105.826 237.151C105.299 239.212 105.256 239.174 101.384 233.22C99.2336 229.913 95.78 224.272 93.7087 220.684C88.2247 211.185 88.1712 211.113 85.9566 210.339C84.4367 209.808 83.4312 209.878 81.9516 210.618C79.3623 211.912 68.6322 219.438 61.191 225.177C57.9425 227.683 55.173 229.621 55.0361 229.485C54.6495 229.097 57.5733 215.817 60.2509 205.796C69.5563 170.97 83.9485 137.653 102.778 107.344C105.696 102.647 108.364 98.8054 108.707 98.8054C109.049 98.8054 116.88 100.9 126.108 103.46ZM253.214 107.344C261.164 120.157 264.168 125.658 271.766 141.323C282.156 162.741 289.572 182.679 295.749 205.796C298.427 215.817 301.351 229.097 300.964 229.485C300.827 229.621 298.058 227.683 294.809 225.177C287.368 219.438 276.638 211.912 274.048 210.618C272.569 209.878 271.563 209.808 270.043 210.339C267.829 211.113 267.775 211.185 262.291 220.684C260.22 224.272 256.766 229.913 254.616 233.22C250.744 239.174 250.701 239.212 250.174 237.151C249.882 236.007 248.526 230.416 247.161 224.728C238.942 190.472 224.051 156.472 204.306 126.883C201.693 122.966 199.555 119.463 199.555 119.096C199.555 118.729 200.728 118.043 202.162 117.569C203.732 117.052 206.414 115.02 208.902 112.463L213.035 108.215L229.413 103.57C238.423 101.016 246.271 98.8988 246.855 98.8654C247.492 98.8298 250.037 102.222 253.214 107.344ZM186.798 120.935C188.697 123.361 202.336 143.922 202.336 144.359C202.336 144.606 191.385 144.808 178 144.808C164.615 144.808 153.664 144.654 153.664 144.466C153.664 143.906 159.745 134.505 165.048 126.866L170.004 119.727L177.924 119.722C184.643 119.716 185.988 119.9 186.798 120.935ZM63.5592 160.665C57.2263 177.329 55.1139 183.499 51.8043 194.992C48.0127 208.158 44.1482 225.235 42.0595 238.054C40.9741 244.711 40.9727 245.344 42.0372 246.971C43.4709 249.165 46.0846 250.213 48.1504 249.422C49.0105 249.093 53.6288 245.572 58.4132 241.598C66.5609 234.83 81.4746 223.569 82.2902 223.569C82.4919 223.569 85.1772 227.725 88.2574 232.804C96.2382 245.965 104.335 257.204 106.63 258.308C108.193 259.06 108.975 259.075 110.633 258.387C113.346 257.26 113.743 256.383 115.054 248.614C119.074 224.796 125.566 202.796 135.389 179.703C138.834 171.604 144.454 160.142 144.98 160.142C145.167 160.142 145.32 201.857 145.32 252.843V345.545H90.7383H36.1562V250.752V155.96H50.7516H65.3476L63.5592 160.665ZM200.25 250.752V345.545H178H155.75V250.752V155.96H178H200.25V250.752Z" fill="#C19A5B"/> </svg><path xmlns="http://www.w3.org/2000/svg" fill-rule="evenodd" clip-rule="evenodd" d="M60.6764 0.860293C52.2068 3.25102 44.8407 8.99852 41.3203 15.963C39.1767 20.2036 31.0276 42.0937 29.8553 46.7615C28.48 52.2372 29.3401 60.6653 31.837 66.1835L33.9493 70.8507L18.6518 71.0626L3.35349 71.2738L1.67709 73.2295L0 75.1853V96.658V118.131L1.83284 119.969C3.82909 121.97 5.27742 122.225 7.88693 121.033C10.8608 119.674 11.125 117.914 11.125 99.4697V82.0773H29.9116H48.6983L72.3792 88.6368C85.4038 92.2438 96.2153 95.3511 96.4044 95.5407C96.5942 95.7302 93.5821 101.169 89.712 107.626C85.8419 114.084 79.8253 125.091 76.3425 132.087L70.0096 144.808H40.5673H11.125V141.288C11.125 137.484 9.76427 134.084 7.9648 133.391C5.70434 132.522 3.37435 132.998 1.70699 134.67C0.0938672 136.286 0 136.819 0 144.332C0 151.995 0.06675 152.351 1.83284 154.122C3.65456 155.948 3.73383 155.96 14.3485 155.96H25.0312V254.143V352.327L26.4726 354.163L27.9133 356H178H328.087L329.527 354.163C330.896 352.419 330.969 351.47 330.969 335.298C330.969 318.024 330.744 316.297 328.248 314.376C326.832 313.286 323.981 313.286 322.565 314.376C320.136 316.245 319.844 318.13 319.844 331.907V345.545H265.262H210.68V252.843C210.68 201.857 210.833 160.142 211.02 160.142C211.546 160.142 217.166 171.604 220.611 179.703C230.434 202.796 236.926 224.796 240.946 248.614C242.257 256.383 242.654 257.26 245.367 258.387C247.025 259.075 247.807 259.06 249.37 258.308C251.665 257.204 259.762 245.965 267.743 232.804C270.823 227.725 273.508 223.569 273.71 223.569C274.525 223.569 289.439 234.83 297.587 241.598C302.371 245.572 306.989 249.093 307.85 249.422C309.915 250.213 312.529 249.165 313.963 246.971C315.027 245.344 315.026 244.711 313.941 238.054C311.852 225.235 307.987 208.158 304.196 194.992C300.886 183.499 298.774 177.329 292.441 160.665L290.652 155.96H305.248H319.844V226.741C319.844 288.67 319.976 297.776 320.899 299.567C322.752 303.159 328.254 303.137 330.075 299.531C330.759 298.176 330.951 282.412 330.958 226.88L330.969 155.96H341.652C352.266 155.96 352.345 155.948 354.167 154.122L356 152.284V113.735V75.1853L354.323 73.2295L352.647 71.2738L337.348 71.0626L322.051 70.8507L324.163 66.1835C326.66 60.6653 327.52 52.2372 326.145 46.7615C324.972 42.0937 316.823 20.2036 314.68 15.963C309.612 5.93867 296.996 -1.01465 285.935 0.121468C279.618 0.770379 276.543 2.07029 239.604 19.7045C207.446 35.056 206.224 35.5739 204.143 34.7201C197.411 31.9564 197.389 31.9543 178 31.9543C158.611 31.9543 158.589 31.9564 151.857 34.7201C149.777 35.5739 148.554 35.0553 116.396 19.701C98.0773 10.9543 81.1012 3.05516 78.6711 2.14766C73.0064 0.0322515 65.5089 -0.503745 60.6764 0.860293ZM108.238 28.026C140.98 43.6292 143.086 44.7409 142.552 46.1467C142.24 46.9706 141.758 49.7593 141.482 52.3445C141.206 54.9297 140.783 56.9531 140.543 56.8409C140.302 56.7287 136.194 54.5387 131.414 51.9744C110.546 40.7812 88.0106 33.2968 75.1508 33.2891C65.3635 33.2835 56.5546 36.7567 52.3223 42.2902C49.6995 45.7195 49.4951 47.7101 51.5039 50.2695C53.8054 53.2032 56.8884 52.7976 61.1541 48.9989C65.6618 44.9862 68.7184 44.1735 77.5273 44.6475C90.8182 45.3633 110.041 52.5933 134.021 65.8978L141.148 69.8519V82.9346C141.148 90.1298 140.998 96.0174 140.815 96.0174C140.631 96.0174 120.528 90.5097 96.1409 83.778C69.9443 76.5466 50.6626 70.8723 49.0188 69.9097C45.4818 67.8403 44.3192 66.5251 42.211 62.2127C39.9686 57.6257 39.5285 54.9388 40.3281 50.7135C41.2953 45.5996 50.2794 21.8527 52.396 18.8165C56.0276 13.605 61.9461 10.8588 68.8359 11.1871C73.1163 11.3913 75.2015 12.2828 108.238 28.026ZM293.5 11.6903C297.165 12.7108 301.672 15.9776 303.802 19.1574C305.951 22.3657 314.728 45.723 315.685 50.7832C316.471 54.9395 316.023 57.6431 313.789 62.2127C311.681 66.5251 310.518 67.8403 306.981 69.9097C305.337 70.8723 286.056 76.5466 259.859 83.778C235.472 90.5097 215.369 96.0174 215.185 96.0174C215.002 96.0174 214.852 90.088 214.852 82.8405V69.6637L220.24 66.4993C234.932 57.8704 258.615 47.883 269.926 45.5466C276.07 44.2767 284.22 44.1115 288.053 45.1779C289.498 45.5808 292.246 47.3038 294.16 49.008C298.181 52.5878 301.011 53.0603 303.633 50.5908C306.134 48.235 305.77 45.2365 302.535 41.5521C297.815 36.1768 290.032 33.2982 280.211 33.2933C267.025 33.287 242.737 41.5605 221.457 53.3064L215.199 56.7607L214.404 51.3506C213.967 48.3751 213.432 45.6533 213.215 45.3013C212.91 44.805 270.05 17.0496 281.602 12.0835C284.429 10.8679 289.899 10.6874 293.5 11.6903ZM198.93 44.6273C203.66 47.7945 203.724 48.2141 203.725 75.699C203.727 102.939 203.638 103.555 199.295 106.661C197.173 108.178 196.666 108.215 178 108.215C150.398 108.215 152.273 110.585 152.275 75.699C152.276 48.2141 152.34 47.7945 157.07 44.6273C159.379 43.0813 159.854 43.0451 178 43.0451C196.146 43.0451 196.621 43.0813 198.93 44.6273ZM344.875 113.443V144.808H315.433H285.99L279.657 132.087C276.175 125.092 270.158 114.084 266.288 107.626C262.418 101.169 259.407 95.7288 259.598 95.5379C259.789 95.3469 270.372 92.271 283.115 88.7037L306.285 82.2167L325.58 82.147L344.875 82.0773V113.443ZM126.108 103.46L142.887 108.114L147.059 112.417C149.602 115.041 152.248 117.054 153.838 117.575C155.272 118.046 156.445 118.729 156.445 119.096C156.445 119.463 154.307 122.966 151.694 126.883C131.949 156.472 117.058 190.472 108.839 224.728C107.474 230.416 106.118 236.007 105.826 237.151C105.299 239.212 105.256 239.174 101.384 233.22C99.2336 229.913 95.78 224.272 93.7087 220.684C88.2247 211.185 88.1712 211.113 85.9566 210.339C84.4367 209.808 83.4312 209.878 81.9516 210.618C79.3623 211.912 68.6322 219.438 61.191 225.177C57.9425 227.683 55.173 229.621 55.0361 229.485C54.6495 229.097 57.5733 215.817 60.2509 205.796C69.5563 170.97 83.9485 137.653 102.778 107.344C105.696 102.647 108.364 98.8054 108.707 98.8054C109.049 98.8054 116.88 100.9 126.108 103.46ZM253.214 107.344C261.164 120.157 264.168 125.658 271.766 141.323C282.156 162.741 289.572 182.679 295.749 205.796C298.427 215.817 301.351 229.097 300.964 229.485C300.827 229.621 298.058 227.683 294.809 225.177C287.368 219.438 276.638 211.912 274.048 210.618C272.569 209.878 271.563 209.808 270.043 210.339C267.829 211.113 267.775 211.185 262.291 220.684C260.22 224.272 256.766 229.913 254.616 233.22C250.744 239.174 250.701 239.212 250.174 237.151C249.882 236.007 248.526 230.416 247.161 224.728C238.942 190.472 224.051 156.472 204.306 126.883C201.693 122.966 199.555 119.463 199.555 119.096C199.555 118.729 200.728 118.043 202.162 117.569C203.732 117.052 206.414 115.02 208.902 112.463L213.035 108.215L229.413 103.57C238.423 101.016 246.271 98.8988 246.855 98.8654C247.492 98.8298 250.037 102.222 253.214 107.344ZM186.798 120.935C188.697 123.361 202.336 143.922 202.336 144.359C202.336 144.606 191.385 144.808 178 144.808C164.615 144.808 153.664 144.654 153.664 144.466C153.664 143.906 159.745 134.505 165.048 126.866L170.004 119.727L177.924 119.722C184.643 119.716 185.988 119.9 186.798 120.935ZM63.5592 160.665C57.2263 177.329 55.1139 183.499 51.8043 194.992C48.0127 208.158 44.1482 225.235 42.0595 238.054C40.9741 244.711 40.9727 245.344 42.0372 246.971C43.4709 249.165 46.0846 250.213 48.1504 249.422C49.0105 249.093 53.6288 245.572 58.4132 241.598C66.5609 234.83 81.4746 223.569 82.2902 223.569C82.4919 223.569 85.1772 227.725 88.2574 232.804C96.2382 245.965 104.335 257.204 106.63 258.308C108.193 259.06 108.975 259.075 110.633 258.387C113.346 257.26 113.743 256.383 115.054 248.614C119.074 224.796 125.566 202.796 135.389 179.703C138.834 171.604 144.454 160.142 144.98 160.142C145.167 160.142 145.32 201.857 145.32 252.843V345.545H90.7383H36.1562V250.752V155.96H50.7516H65.3476L63.5592 160.665ZM200.25 250.752V345.545H178H155.75V250.752V155.96H178H200.25V250.752Z" fill="#C19A5B"/></svg>